<svg width="178" height="42" viewBox="0 0 178 42" fill="none" xmlns="http://www.w3.org/2000/svg">
<path d="M45.4102 11.9375L48.6445 18.4766L51.8555 11.9375H54.3633L49.9219 20.3867L54.457 29H51.9258L48.6445 22.332L45.3516 29H42.8086L47.3555 20.3867L42.9023 11.9375H45.4102ZM62.5664 11.9375V29H60.4336V11.9375H62.5664ZM67.0547 11.9375V13.7891H55.957V11.9375H67.0547ZM69.5859 11.9375H74.3555C75.4648 11.9375 76.3945 12.1328 77.1445 12.5234C77.9023 12.9141 78.4727 13.4922 78.8555 14.2578C79.2461 15.0156 79.4414 15.9492 79.4414 17.0586C79.4414 17.8398 79.3125 18.5547 79.0547 19.2031C78.7969 19.8438 78.4219 20.3906 77.9297 20.8438C77.4375 21.2891 76.8398 21.6211 76.1367 21.8398L75.5508 22.0859H71.2969L71.2734 20.2461H74.332C74.9883 20.2461 75.5352 20.1055 75.9727 19.8242C76.4102 19.5352 76.7383 19.1484 76.957 18.6641C77.1758 18.1797 77.2852 17.6445 77.2852 17.0586C77.2852 16.4023 77.1875 15.8281 76.9922 15.3359C76.7969 14.8438 76.4844 14.4648 76.0547 14.1992C75.6328 13.9258 75.0664 13.7891 74.3555 13.7891H71.7422V29H69.5859V11.9375ZM77.7773 29L74.3789 21.2656L76.6172 21.2539L80.0859 28.8594V29H77.7773ZM91.5 27.1602V29H84.0938V27.1602H91.5ZM84.4805 11.9375V29H82.3242V11.9375H84.4805ZM90.5039 19.2734V21.1133H84.0938V19.2734H90.5039ZM91.3828 11.9375V13.7891H84.0938V11.9375H91.3828ZM94.9336 11.9375H97.0195L101.484 25.8477L105.938 11.9375H108.023L102.293 29H100.652L94.9336 11.9375ZM94.2539 11.9375H96.082L96.3984 22.3438V29H94.2539V11.9375ZM106.863 11.9375H108.691V29H106.547V22.3438L106.863 11.9375ZM121.57 27.1602V29H114.164V27.1602H121.57ZM114.551 11.9375V29H112.395V11.9375H114.551ZM120.574 19.2734V21.1133H114.164V19.2734H120.574ZM121.453 11.9375V13.7891H114.164V11.9375H121.453ZM131.801 23.2695H135.504C135.48 24.5508 135.227 25.6367 134.742 26.5273C134.258 27.418 133.57 28.0938 132.68 28.5547C131.789 29.0078 130.734 29.2344 129.516 29.2344C128.547 29.2344 127.688 29.0703 126.938 28.7422C126.188 28.4062 125.551 27.9219 125.027 27.2891C124.512 26.6562 124.121 25.8789 123.855 24.957C123.598 24.0352 123.469 22.9805 123.469 21.793V19.1445C123.469 17.9648 123.609 16.9102 123.891 15.9805C124.172 15.0508 124.57 14.2695 125.086 13.6367C125.609 12.9961 126.246 12.5117 126.996 12.1836C127.746 11.8555 128.586 11.6914 129.516 11.6914C130.789 11.6914 131.859 11.9297 132.727 12.4062C133.594 12.8828 134.262 13.5742 134.73 14.4805C135.199 15.3867 135.465 16.4844 135.527 17.7734H131.812C131.82 16.9922 131.75 16.3828 131.602 15.9453C131.461 15.5 131.223 15.1875 130.887 15.0078C130.551 14.8203 130.094 14.7266 129.516 14.7266C129.102 14.7266 128.746 14.8047 128.449 14.9609C128.152 15.1094 127.914 15.3555 127.734 15.6992C127.555 16.043 127.422 16.4961 127.336 17.0586C127.25 17.6211 127.207 18.3086 127.207 19.1211V21.793C127.207 22.6055 127.242 23.293 127.312 23.8555C127.383 24.4102 127.504 24.8633 127.676 25.2148C127.848 25.5586 128.082 25.8086 128.379 25.9648C128.676 26.1211 129.055 26.1992 129.516 26.1992C130.031 26.1992 130.457 26.1211 130.793 25.9648C131.129 25.8008 131.379 25.5078 131.543 25.0859C131.715 24.6641 131.801 24.0586 131.801 23.2695ZM143.777 15.2539L140.355 29H136.383L141.691 11.9375H144.164L143.777 15.2539ZM146.473 29L143.039 15.2539L142.594 11.9375H145.113L150.445 29H146.473ZM146.602 22.6367V25.6484H139.043V22.6367H146.602ZM151.91 11.9375H157.57C158.711 11.9375 159.691 12.1328 160.512 12.5234C161.332 12.9141 161.961 13.4922 162.398 14.2578C162.844 15.0234 163.066 15.9688 163.066 17.0938C163.066 18.0469 162.941 18.8516 162.691 19.5078C162.441 20.1562 162.09 20.6953 161.637 21.125C161.184 21.5547 160.648 21.9023 160.031 22.168L158.848 22.8594H154.336L154.324 19.8477H157.477C157.898 19.8477 158.246 19.75 158.52 19.5547C158.793 19.3594 158.996 19.082 159.129 18.7227C159.27 18.3555 159.34 17.9219 159.34 17.4219C159.34 16.9062 159.273 16.4648 159.141 16.0977C159.016 15.7305 158.824 15.4492 158.566 15.2539C158.316 15.0586 157.984 14.9609 157.57 14.9609H155.637V29H151.91V11.9375ZM159.574 29L156.492 21.418L160.406 21.4062L163.559 28.8242V29H159.574ZM172.547 24.4883C172.547 24.1992 172.52 23.9414 172.465 23.7148C172.41 23.4805 172.305 23.2656 172.148 23.0703C171.992 22.8672 171.758 22.6641 171.445 22.4609C171.133 22.2578 170.723 22.0469 170.215 21.8281C169.59 21.5703 168.98 21.2891 168.387 20.9844C167.801 20.6719 167.273 20.3125 166.805 19.9062C166.336 19.4922 165.961 19.0078 165.68 18.4531C165.398 17.8906 165.258 17.2344 165.258 16.4844C165.258 15.7578 165.395 15.1016 165.668 14.5156C165.941 13.9219 166.324 13.418 166.816 13.0039C167.309 12.582 167.891 12.2617 168.562 12.043C169.234 11.8164 169.973 11.7031 170.777 11.7031C171.863 11.7031 172.812 11.9258 173.625 12.3711C174.438 12.8086 175.07 13.4258 175.523 14.2227C175.977 15.0117 176.203 15.9336 176.203 16.9883H172.5C172.5 16.5273 172.438 16.125 172.312 15.7812C172.188 15.4297 171.992 15.1562 171.727 14.9609C171.469 14.7578 171.129 14.6562 170.707 14.6562C170.316 14.6562 169.992 14.7383 169.734 14.9023C169.477 15.0664 169.285 15.2891 169.16 15.5703C169.035 15.8516 168.973 16.1641 168.973 16.5078C168.973 16.7812 169.035 17.0234 169.16 17.2344C169.293 17.4453 169.469 17.6406 169.688 17.8203C169.914 18 170.18 18.1719 170.484 18.3359C170.797 18.5 171.133 18.6562 171.492 18.8047C172.258 19.1094 172.938 19.4414 173.531 19.8008C174.133 20.1602 174.633 20.5664 175.031 21.0195C175.438 21.4648 175.742 21.9727 175.945 22.543C176.156 23.1055 176.262 23.7461 176.262 24.4648C176.262 25.1992 176.137 25.8633 175.887 26.457C175.637 27.043 175.277 27.543 174.809 27.957C174.348 28.3711 173.785 28.6875 173.121 28.9062C172.457 29.125 171.715 29.2344 170.895 29.2344C170.121 29.2344 169.375 29.125 168.656 28.9062C167.938 28.6797 167.297 28.3359 166.734 27.875C166.18 27.4141 165.738 26.8242 165.41 26.1055C165.082 25.3867 164.918 24.5312 164.918 23.5391H168.645C168.645 24.0469 168.688 24.4805 168.773 24.8398C168.867 25.1914 169.008 25.4727 169.195 25.6836C169.391 25.8945 169.629 26.0508 169.91 26.1523C170.199 26.2461 170.543 26.293 170.941 26.293C171.348 26.293 171.668 26.2109 171.902 26.0469C172.137 25.8828 172.301 25.668 172.395 25.4023C172.496 25.1289 172.547 24.8242 172.547 24.4883Z" fill="white"/>
<rect width="5.34556" height="54.0182" transform="matrix(0.707029 -0.707185 0.707029 0.707185 28 3.79907)" fill="white" fill-opacity="0.2"/>
<rect width="5.34556" height="54.0182" transform="matrix(-0.707029 -0.707185 0.707029 -0.707185 31.8076 41.9812)" fill="white" fill-opacity="0.2"/>
<path d="M21.4149 1C21.1206 1 20.8395 1.11301 20.6384 1.31215L13.638 8.24433C13.2029 8.67515 13.5325 9.3795 14.1691 9.3795C14.3019 9.3795 14.4321 9.34584 14.5457 9.28217L23.1211 4.47467C23.2652 4.39391 23.4279 4.346 23.5958 4.33489L35.0093 3.57925C35.5659 3.5424 35.9971 3.11313 35.9971 2.59593V1.98582C35.9971 1.44137 35.5209 1 34.9335 1H21.4149Z" fill="white"/>
<path d="M10.8368 10.2374C10.737 10.2241 10.6358 10.2241 10.536 10.2374L4.70896 11.0089C4.48115 11.0391 4.27003 11.1369 4.1073 11.2878L2.37871 12.89C1.77463 13.4499 2.20246 14.4072 3.05675 14.4072C3.31106 14.4072 3.55496 14.3136 3.73479 14.1469L4.95053 13.02C5.15 12.8352 5.42052 12.7313 5.70261 12.7313H10.6864L34.9896 15.1448C35.5293 15.1984 36 14.8064 36 14.3033C36 13.8821 35.6659 13.525 35.216 13.4654L10.8368 10.2374Z" fill="white"/>
<path d="M15.0968 26.1014C15.1698 26.1261 15.2456 26.1432 15.3227 26.1525L34.7988 28.5071C35.4355 28.5841 36 28.1247 36 27.5296V26.999C36 26.506 35.6071 26.0888 35.0801 26.0222L17.0306 23.7409C16.5036 23.6743 16.1107 23.2571 16.1107 22.7641V21.677C16.1107 21.3264 15.9098 21.0021 15.5831 20.8255L5.61073 15.4337C5.3861 15.3122 5.12124 15.2712 4.86623 15.3185L1.59677 15.9246C1.09963 16.0167 0.741769 16.4213 0.741769 16.8913V18.9611C0.741769 19.2605 0.888641 19.5438 1.14094 19.7309L5.12548 22.6854C5.21592 22.7525 5.31758 22.8054 5.42643 22.8421L15.0968 26.1014Z" fill="white"/>
<path d="M21.9247 28.675C21.6723 28.6604 21.4225 28.7296 21.2202 28.8703L18.2652 30.9244C18.0423 31.0794 17.7627 31.1471 17.4865 31.113L5.09305 29.5813C4.65068 29.5267 4.29217 29.2218 4.19536 28.818L2.84394 23.1813C2.69383 22.5552 1.94772 22.2272 1.32883 22.514C0.968499 22.681 0.740314 23.0226 0.740314 23.396V30.0955C0.740314 30.2486 0.70187 30.3995 0.628027 30.5364L0.112289 31.4925C-0.0584025 31.8089 -0.0330841 32.1858 0.178633 32.4802L1.64437 34.518L2.27912 35.6947C2.4462 36.0044 2.77635 36.2102 3.14885 36.2367L13.8134 36.9971C14.123 37.0192 14.4275 36.9148 14.6471 36.7113L14.8937 36.4827C15.0932 36.2978 15.3637 36.1939 15.6458 36.1939H19.285C19.567 36.1939 19.8376 36.0901 20.037 35.9052L22.0964 33.9964C22.3133 33.7954 22.6132 33.6909 22.9192 33.7098L34.8642 34.4479C35.4781 34.4859 35.9985 34.0346 35.9985 33.4643V30.4165C35.9985 29.8959 35.5618 29.465 35.0013 29.4326L21.9247 28.675Z" fill="white"/>
</svg>
